<?xml version="1.0" encoding="UTF-8" standalone="no"?> <svg width="43" height="42" viewBox="0 0 43 42" fill="none" xmlns="http://www.w3.org/2000/svg">
<rect x="0.824707" width="42" height="42" rx="21" fill="transparent"/>
<path d="M14.2838 30.5343C13.902 30.5343 13.6156 30.3434 13.4247 29.9616C11.9929 27.1934 11.3247 24.1389 11.3247 20.9889C11.3247 17.8389 11.9929 14.7843 13.4247 12.0161C13.6156 11.5389 14.1883 11.3479 14.6656 11.5389C15.1429 11.7298 15.3338 12.3025 15.1429 12.7798C13.902 15.357 13.2338 18.1252 13.2338 20.9889C13.2338 23.8525 13.902 26.6207 15.1429 29.1979C15.3338 29.6752 15.1429 30.2479 14.6656 30.4389C14.5702 30.5343 14.3793 30.5343 14.2838 30.5343ZM29.3656 30.5343C29.2702 30.5343 29.0793 30.5343 28.9838 30.4389C28.5065 30.2479 28.3156 29.6752 28.5065 29.1979C29.7474 26.6207 30.4156 23.8525 30.4156 20.9889C30.4156 18.1252 29.7474 15.357 28.5065 12.7798C28.3156 12.3025 28.5065 11.7298 28.9838 11.5389C29.4611 11.3479 30.0338 11.5389 30.2247 12.0161C31.6565 14.7843 32.3247 17.8389 32.3247 20.9889C32.3247 24.1389 31.6565 27.1934 30.2247 29.9616C30.0338 30.3434 29.7474 30.5343 29.3656 30.5343ZM25.0702 26.2389H23.7338C22.8747 26.2389 22.0156 25.6661 21.8247 24.807L21.4429 23.5661L20.0111 25.1889C19.4383 25.857 18.5793 26.2389 17.6247 26.2389C17.052 26.2389 16.6702 25.857 16.6702 25.2843C16.6702 24.7116 17.052 24.3298 17.6247 24.3298C18.102 24.3298 18.3883 24.1389 18.5793 23.9479L20.7747 21.3707L20.1065 18.8889C20.1065 18.7934 20.0111 18.7934 20.0111 18.7934H18.6747C18.102 18.7934 17.7202 18.4116 17.7202 17.8389C17.7202 17.2661 18.102 16.8843 18.6747 16.8843H20.0111C20.8702 16.8843 21.7293 17.457 21.9202 18.3161L22.302 19.557L23.7338 17.9343C24.3065 17.2661 25.1656 16.8843 26.1202 16.8843C26.6929 16.8843 27.0747 17.2661 27.0747 17.8389C27.0747 18.4116 26.6929 18.7934 26.1202 18.7934H26.0247C25.6429 18.7934 25.3565 18.9843 25.1656 19.1752L22.9702 21.7525L23.6383 24.2343C23.6383 24.3298 23.7338 24.3298 23.7338 24.3298H25.0702C25.6429 24.3298 26.0247 24.7116 26.0247 25.2843C26.0247 25.857 25.6429 26.2389 25.0702 26.2389Z" fill="#EFC75E"/>
</svg>
